# xmcd
#
# Track frame offsets:
#	150
#	14322
#	28762
#	40745
#	57710
#	70180
#	86737
#	104520
#	117202
#	133317
#	149677
#	159792
#	172220
#	183165
#	196472
#	208855
#	221882
#	231627
#	244182
#	256700
#
# Disc length: 3595 seconds
#
# Revision: 1
# Processed by: cddbd v1.4PL0 Copyright (c) Steve Scherf et al.
# Submitted via: audiograbber 1.81.03
#
DISCID=380e0914
DTITLE=Merle Haggard - Hits
DYEAR=1900
DGENRE=Country
TTITLE0=Always Wanting You
TTITLE1=Branded Man
TTITLE2=Carolyn
TTITLE3=Daddy Frank
TTITLE4=Everybody's Had The Blues
TTITLE5=Hungry Eyes
TTITLE6=I Think I'll Just Drink
TTITLE7=If We Make It Through Ded
TTITLE8=It's All In The Movies
TTITLE9=It's Not Love
TTITLE10=Mama Tried
TTITLE11=Okie From Muskogee
TTITLE12=Old Man
TTITLE13=Sing Me Back Home
TTITLE14=Bottle Let Me Down
TTITLE15=Fighting Side of Me
TTITLE16=Bonnie and Clyde
TTITLE17=Roots Of My Raising
TTITLE18=Things Aren't Funny Anymore
TTITLE19=Workin' Man Blues
EXTD=
EXTT0=
EXTT1=
EXTT2=
EXTT3=
EXTT4=
EXTT5=
EXTT6=
EXTT7=
EXTT8=
EXTT9=
EXTT10=
EXTT11=
EXTT12=
EXTT13=
EXTT14=
EXTT15=
EXTT16=
EXTT17=
EXTT18=
EXTT19=
PLAYORDER=
